<svg width="20" height="20" viewBox="0 0 20 20" fill="none" xmlns="http://www.w3.org/2000/svg">
<path d="M15.7143 7.85718H4.28569C3.49672 7.85718 2.85712 8.49678 2.85712 9.28575V17.8572C2.85712 18.6462 3.49672 19.2857 4.28569 19.2857H15.7143C16.5033 19.2857 17.1428 18.6462 17.1428 17.8572V9.28575C17.1428 8.49678 16.5033 7.85718 15.7143 7.85718Z" stroke="white" stroke-linecap="round" stroke-linejoin="round"/>
<path d="M15 7.85715V5.71429C15 4.38821 14.4733 3.11644 13.5355 2.17877C12.5979 1.24108 11.3261 0.714294 10 0.714294C8.67391 0.714294 7.40214 1.24108 6.46447 2.17877C5.52679 3.11644 5 4.38821 5 5.71429V7.85715" stroke="white" stroke-linecap="round" stroke-linejoin="round"/>
<path d="M9.99999 14.2857C10.3945 14.2857 10.7143 13.9659 10.7143 13.5715C10.7143 13.177 10.3945 12.8572 9.99999 12.8572C9.60551 12.8572 9.28571 13.177 9.28571 13.5715C9.28571 13.9659 9.60551 14.2857 9.99999 14.2857Z" stroke="white" stroke-linecap="round" stroke-linejoin="round"/>
</svg>
