<svg fill="none" xmlns="http://www.w3.org/2000/svg" viewBox="0 0 512 512">
  <path fill-rule="evenodd" clip-rule="evenodd"
    d="m40.31.5 387.23 56.53c22.2 3.24 42.07 24.22 44.5 46.85l39.72 370.85c2.39 22.33-13.31 38.96-35.2 37.13L95.1 480.1c-24.44-2.03-46.58-22.98-49.32-46.8L.28 37.68C-2.49 13.5 15.5-3.13 40.31.5Z"
    fill="#2D2D2D" />
  <path opacity=".15" fill-rule="evenodd" clip-rule="evenodd"
    d="m25.23 54.08 41.84 363.96c2.24 19.44 20.62 36.95 40.82 38.63l350.93 29.22c8.66.72 15.78-2.2 20.51-7.2 4.75-5.02 7.44-12.48 6.48-21.44L449.27 116.1c-2-18.6-18.58-36.03-36.69-38.68l-356.22-52c-10.14-1.49-18.4 1.21-23.8 6.23-5.39 4.99-8.45 12.73-7.33 22.44Zm-4.97.57L62.11 418.6c2.51 21.9 22.89 41.17 45.37 43.04l350.92 29.22c20.13 1.68 34.58-13.61 32.38-34.15l-36.54-341.16c-2.23-20.82-20.5-40.11-40.93-43.1l-356.23-52c-22.83-3.34-39.37 11.97-36.82 34.19Z"
    fill="#F1F2F2" />
  <path fill-rule="evenodd" clip-rule="evenodd"
    d="m143 158 113 196.18L369 158H218.43L256 223.52l18.83-32.43h37.47L256 288.52 180.76 158H143Z" fill="#F1F2F2" />
</svg>